<mxfile host="Electron" agent="Mozilla/5.0 (X11; Linux x86_64) AppleWebKit/537.36 (KHTML, like Gecko) draw.io/27.0.5 Chrome/134.0.6998.205 Electron/35.3.0 Safari/537.36" version="27.0.5">
  <diagram name="Page-1" id="ziUosFHIEIT_HwIhcA-V">
    <mxGraphModel dx="1188" dy="648" grid="1" gridSize="10" guides="1" tooltips="1" connect="1" arrows="1" fold="1" page="1" pageScale="1" pageWidth="850" pageHeight="1100" background="none" math="0" shadow="0">
      <root>
        <mxCell id="0" />
        <mxCell id="1" parent="0" />
        <mxCell id="jdXmPFeuhPM9TQTHVaVl-31" value="Financial Tracker" style="rounded=0;whiteSpace=wrap;html=1;verticalAlign=top;" parent="1" vertex="1">
          <mxGeometry x="270" y="20" width="520" height="540" as="geometry" />
        </mxCell>
        <mxCell id="jdXmPFeuhPM9TQTHVaVl-1" value="Common User" style="shape=umlActor;verticalLabelPosition=bottom;verticalAlign=top;html=1;labelBackgroundColor=none;" parent="1" vertex="1">
          <mxGeometry x="110" y="200" width="30" height="60" as="geometry" />
        </mxCell>
        <mxCell id="jdXmPFeuhPM9TQTHVaVl-2" value="Add expendiuture" style="ellipse;whiteSpace=wrap;html=1;" parent="1" vertex="1">
          <mxGeometry x="280" y="90" width="120" height="40" as="geometry" />
        </mxCell>
        <mxCell id="jdXmPFeuhPM9TQTHVaVl-3" value="Add income" style="ellipse;whiteSpace=wrap;html=1;" parent="1" vertex="1">
          <mxGeometry x="390" y="240" width="120" height="40" as="geometry" />
        </mxCell>
        <mxCell id="jdXmPFeuhPM9TQTHVaVl-16" value="&amp;lt;&amp;lt;extends&amp;gt;&amp;gt;" style="rounded=0;orthogonalLoop=1;jettySize=auto;html=1;endArrow=open;endFill=0;dashed=1;exitX=0;exitY=0.5;exitDx=0;exitDy=0;" parent="1" source="jdXmPFeuhPM9TQTHVaVl-12" target="jdXmPFeuhPM9TQTHVaVl-4" edge="1">
          <mxGeometry relative="1" as="geometry">
            <mxPoint x="460" y="120" as="sourcePoint" />
          </mxGeometry>
        </mxCell>
        <mxCell id="jdXmPFeuhPM9TQTHVaVl-4" value="Browse incomes" style="ellipse;whiteSpace=wrap;html=1;" parent="1" vertex="1">
          <mxGeometry x="390" y="150" width="120" height="40" as="geometry" />
        </mxCell>
        <mxCell id="jdXmPFeuhPM9TQTHVaVl-5" value="Browse expenditures" style="ellipse;whiteSpace=wrap;html=1;" parent="1" vertex="1">
          <mxGeometry x="280" y="320" width="120" height="40" as="geometry" />
        </mxCell>
        <mxCell id="jdXmPFeuhPM9TQTHVaVl-6" value="Guest" style="shape=umlActor;verticalLabelPosition=bottom;verticalAlign=top;html=1;labelBackgroundColor=none;" parent="1" vertex="1">
          <mxGeometry x="110" y="480" width="30" height="60" as="geometry" />
        </mxCell>
        <mxCell id="jdXmPFeuhPM9TQTHVaVl-8" value="" style="endArrow=none;html=1;rounded=0;" parent="1" source="jdXmPFeuhPM9TQTHVaVl-1" target="jdXmPFeuhPM9TQTHVaVl-3" edge="1">
          <mxGeometry width="50" height="50" relative="1" as="geometry">
            <mxPoint x="200" y="220" as="sourcePoint" />
            <mxPoint x="290" y="260" as="targetPoint" />
          </mxGeometry>
        </mxCell>
        <mxCell id="jdXmPFeuhPM9TQTHVaVl-9" value="" style="endArrow=none;html=1;rounded=0;" parent="1" source="jdXmPFeuhPM9TQTHVaVl-1" target="jdXmPFeuhPM9TQTHVaVl-2" edge="1">
          <mxGeometry width="50" height="50" relative="1" as="geometry">
            <mxPoint x="240" y="310" as="sourcePoint" />
            <mxPoint x="290" y="260" as="targetPoint" />
          </mxGeometry>
        </mxCell>
        <mxCell id="jdXmPFeuhPM9TQTHVaVl-11" value="" style="endArrow=none;html=1;rounded=0;" parent="1" source="jdXmPFeuhPM9TQTHVaVl-1" target="jdXmPFeuhPM9TQTHVaVl-5" edge="1">
          <mxGeometry width="50" height="50" relative="1" as="geometry">
            <mxPoint x="240" y="310" as="sourcePoint" />
            <mxPoint x="290" y="260" as="targetPoint" />
          </mxGeometry>
        </mxCell>
        <mxCell id="jdXmPFeuhPM9TQTHVaVl-12" value="Visualize incomes history" style="ellipse;whiteSpace=wrap;html=1;" parent="1" vertex="1">
          <mxGeometry x="620" y="50" width="120" height="50" as="geometry" />
        </mxCell>
        <mxCell id="jdXmPFeuhPM9TQTHVaVl-13" value="Visualize expenditures history" style="ellipse;whiteSpace=wrap;html=1;" parent="1" vertex="1">
          <mxGeometry x="610" y="320" width="120" height="60" as="geometry" />
        </mxCell>
        <mxCell id="jdXmPFeuhPM9TQTHVaVl-17" value="&amp;lt;&amp;lt;extends&amp;gt;&amp;gt;" style="rounded=0;orthogonalLoop=1;jettySize=auto;html=1;endArrow=open;endFill=0;dashed=1;exitX=0;exitY=0.5;exitDx=0;exitDy=0;" parent="1" source="jdXmPFeuhPM9TQTHVaVl-13" target="jdXmPFeuhPM9TQTHVaVl-5" edge="1">
          <mxGeometry relative="1" as="geometry">
            <mxPoint x="520" y="190" as="sourcePoint" />
            <mxPoint x="410" y="190" as="targetPoint" />
          </mxGeometry>
        </mxCell>
        <mxCell id="jdXmPFeuhPM9TQTHVaVl-18" value="Modify income" style="ellipse;whiteSpace=wrap;html=1;" parent="1" vertex="1">
          <mxGeometry x="640" y="110" width="120" height="50" as="geometry" />
        </mxCell>
        <mxCell id="jdXmPFeuhPM9TQTHVaVl-20" value="&amp;lt;&amp;lt;extends&amp;gt;&amp;gt;" style="rounded=0;orthogonalLoop=1;jettySize=auto;html=1;endArrow=open;endFill=0;dashed=1;exitX=0;exitY=0.5;exitDx=0;exitDy=0;" parent="1" source="jdXmPFeuhPM9TQTHVaVl-18" target="jdXmPFeuhPM9TQTHVaVl-4" edge="1">
          <mxGeometry relative="1" as="geometry">
            <mxPoint x="520" y="135" as="sourcePoint" />
            <mxPoint x="410" y="190" as="targetPoint" />
          </mxGeometry>
        </mxCell>
        <mxCell id="jdXmPFeuhPM9TQTHVaVl-21" value="Modify expenditure" style="ellipse;whiteSpace=wrap;html=1;" parent="1" vertex="1">
          <mxGeometry x="630" y="395" width="120" height="50" as="geometry" />
        </mxCell>
        <mxCell id="jdXmPFeuhPM9TQTHVaVl-22" value="&amp;lt;&amp;lt;extends&amp;gt;&amp;gt;" style="rounded=0;orthogonalLoop=1;jettySize=auto;html=1;endArrow=open;endFill=0;dashed=1;" parent="1" source="jdXmPFeuhPM9TQTHVaVl-21" target="jdXmPFeuhPM9TQTHVaVl-5" edge="1">
          <mxGeometry relative="1" as="geometry">
            <mxPoint x="520" y="215" as="sourcePoint" />
            <mxPoint x="405" y="198" as="targetPoint" />
          </mxGeometry>
        </mxCell>
        <mxCell id="jdXmPFeuhPM9TQTHVaVl-23" value="Login" style="ellipse;whiteSpace=wrap;html=1;" parent="1" vertex="1">
          <mxGeometry x="280" y="400" width="120" height="40" as="geometry" />
        </mxCell>
        <mxCell id="jdXmPFeuhPM9TQTHVaVl-24" value="" style="endArrow=none;html=1;rounded=0;" parent="1" source="jdXmPFeuhPM9TQTHVaVl-1" target="jdXmPFeuhPM9TQTHVaVl-23" edge="1">
          <mxGeometry width="50" height="50" relative="1" as="geometry">
            <mxPoint x="240" y="310" as="sourcePoint" />
            <mxPoint x="290" y="260" as="targetPoint" />
          </mxGeometry>
        </mxCell>
        <mxCell id="jdXmPFeuhPM9TQTHVaVl-27" value="" style="endArrow=none;html=1;rounded=0;" parent="1" source="jdXmPFeuhPM9TQTHVaVl-1" target="jdXmPFeuhPM9TQTHVaVl-4" edge="1">
          <mxGeometry width="50" height="50" relative="1" as="geometry">
            <mxPoint x="240" y="310" as="sourcePoint" />
            <mxPoint x="290" y="260" as="targetPoint" />
          </mxGeometry>
        </mxCell>
        <mxCell id="jdXmPFeuhPM9TQTHVaVl-28" value="Register" style="ellipse;whiteSpace=wrap;html=1;" parent="1" vertex="1">
          <mxGeometry x="280" y="490" width="120" height="40" as="geometry" />
        </mxCell>
        <mxCell id="jdXmPFeuhPM9TQTHVaVl-29" value="" style="endArrow=none;html=1;rounded=0;" parent="1" source="jdXmPFeuhPM9TQTHVaVl-6" target="jdXmPFeuhPM9TQTHVaVl-28" edge="1">
          <mxGeometry width="50" height="50" relative="1" as="geometry">
            <mxPoint x="240" y="380" as="sourcePoint" />
            <mxPoint x="290" y="330" as="targetPoint" />
          </mxGeometry>
        </mxCell>
        <mxCell id="jdXmPFeuhPM9TQTHVaVl-30" value="" style="endArrow=none;html=1;rounded=0;startArrow=block;startFill=0;" parent="1" source="jdXmPFeuhPM9TQTHVaVl-6" target="jdXmPFeuhPM9TQTHVaVl-1" edge="1">
          <mxGeometry width="50" height="50" relative="1" as="geometry">
            <mxPoint x="240" y="380" as="sourcePoint" />
            <mxPoint x="290" y="330" as="targetPoint" />
          </mxGeometry>
        </mxCell>
        <mxCell id="jdXmPFeuhPM9TQTHVaVl-33" value="&amp;lt;&amp;lt;include&amp;gt;&amp;gt;" style="endArrow=open;html=1;rounded=0;dashed=1;endFill=0;" parent="1" source="jdXmPFeuhPM9TQTHVaVl-28" target="jdXmPFeuhPM9TQTHVaVl-23" edge="1">
          <mxGeometry y="-40" width="50" height="50" relative="1" as="geometry">
            <mxPoint x="240" y="240" as="sourcePoint" />
            <mxPoint x="290" y="190" as="targetPoint" />
            <Array as="points" />
            <mxPoint as="offset" />
          </mxGeometry>
        </mxCell>
        <mxCell id="yWS5cS_JHSU6Qw1XWfYE-1" value="&amp;lt;&amp;lt;include&amp;gt;&amp;gt;" style="endArrow=open;html=1;rounded=0;dashed=1;endFill=0;" edge="1" parent="1" source="jdXmPFeuhPM9TQTHVaVl-2" target="jdXmPFeuhPM9TQTHVaVl-5">
          <mxGeometry x="0.0909" width="50" height="50" relative="1" as="geometry">
            <mxPoint x="350" y="380" as="sourcePoint" />
            <mxPoint x="350" y="360" as="targetPoint" />
            <Array as="points" />
            <mxPoint as="offset" />
          </mxGeometry>
        </mxCell>
        <mxCell id="yWS5cS_JHSU6Qw1XWfYE-2" value="&amp;lt;&amp;lt;include&amp;gt;&amp;gt;" style="endArrow=open;html=1;rounded=0;dashed=1;endFill=0;" edge="1" parent="1" source="jdXmPFeuhPM9TQTHVaVl-3" target="jdXmPFeuhPM9TQTHVaVl-4">
          <mxGeometry x="0.2" width="50" height="50" relative="1" as="geometry">
            <mxPoint x="350" y="160" as="sourcePoint" />
            <mxPoint x="350" y="270" as="targetPoint" />
            <Array as="points" />
            <mxPoint as="offset" />
          </mxGeometry>
        </mxCell>
        <mxCell id="yWS5cS_JHSU6Qw1XWfYE-3" value="Remove expenditure" style="ellipse;whiteSpace=wrap;html=1;" vertex="1" parent="1">
          <mxGeometry x="610" y="255" width="120" height="50" as="geometry" />
        </mxCell>
        <mxCell id="yWS5cS_JHSU6Qw1XWfYE-4" value="&amp;lt;&amp;lt;extends&amp;gt;&amp;gt;" style="rounded=0;orthogonalLoop=1;jettySize=auto;html=1;endArrow=open;endFill=0;dashed=1;" edge="1" parent="1" source="yWS5cS_JHSU6Qw1XWfYE-3" target="jdXmPFeuhPM9TQTHVaVl-5">
          <mxGeometry relative="1" as="geometry">
            <mxPoint x="620" y="360" as="sourcePoint" />
            <mxPoint x="397" y="302" as="targetPoint" />
          </mxGeometry>
        </mxCell>
        <mxCell id="yWS5cS_JHSU6Qw1XWfYE-5" value="Remove income" style="ellipse;whiteSpace=wrap;html=1;" vertex="1" parent="1">
          <mxGeometry x="390" y="50" width="120" height="50" as="geometry" />
        </mxCell>
        <mxCell id="yWS5cS_JHSU6Qw1XWfYE-6" value="&amp;lt;&amp;lt;extends&amp;gt;&amp;gt;" style="rounded=0;orthogonalLoop=1;jettySize=auto;html=1;endArrow=open;endFill=0;dashed=1;" edge="1" parent="1" source="yWS5cS_JHSU6Qw1XWfYE-5" target="jdXmPFeuhPM9TQTHVaVl-4">
          <mxGeometry relative="1" as="geometry">
            <mxPoint x="620" y="290" as="sourcePoint" />
            <mxPoint x="410" y="290" as="targetPoint" />
          </mxGeometry>
        </mxCell>
        <mxCell id="yWS5cS_JHSU6Qw1XWfYE-7" value="Visualize incomes categories" style="ellipse;whiteSpace=wrap;html=1;" vertex="1" parent="1">
          <mxGeometry x="610" y="170" width="120" height="60" as="geometry" />
        </mxCell>
        <mxCell id="yWS5cS_JHSU6Qw1XWfYE-8" value="&amp;lt;&amp;lt;extends&amp;gt;&amp;gt;" style="rounded=0;orthogonalLoop=1;jettySize=auto;html=1;endArrow=open;endFill=0;dashed=1;" edge="1" parent="1" source="yWS5cS_JHSU6Qw1XWfYE-7" target="jdXmPFeuhPM9TQTHVaVl-4">
          <mxGeometry relative="1" as="geometry">
            <mxPoint x="625" y="300" as="sourcePoint" />
            <mxPoint x="403" y="340" as="targetPoint" />
          </mxGeometry>
        </mxCell>
        <mxCell id="yWS5cS_JHSU6Qw1XWfYE-9" value="Visualize expenditures categories" style="ellipse;whiteSpace=wrap;html=1;" vertex="1" parent="1">
          <mxGeometry x="500" y="430" width="120" height="60" as="geometry" />
        </mxCell>
        <mxCell id="yWS5cS_JHSU6Qw1XWfYE-10" value="&amp;lt;&amp;lt;extends&amp;gt;&amp;gt;" style="rounded=0;orthogonalLoop=1;jettySize=auto;html=1;endArrow=open;endFill=0;dashed=1;" edge="1" parent="1" source="yWS5cS_JHSU6Qw1XWfYE-9" target="jdXmPFeuhPM9TQTHVaVl-5">
          <mxGeometry relative="1" as="geometry">
            <mxPoint x="695" y="415" as="sourcePoint" />
            <mxPoint x="402" y="360" as="targetPoint" />
          </mxGeometry>
        </mxCell>
      </root>
    </mxGraphModel>
  </diagram>
</mxfile>
